<svg version="1.1" id="Layer_1" xmlns="http://www.w3.org/2000/svg" xmlns:xlink="http://www.w3.org/1999/xlink" x="0px" y="0px" viewBox="0 0 200 200" style="enable-background:new 0 0 200 200;" xml:space="preserve">
	<ellipse cx="65" cy="8.5" rx="117" ry="100.5" style="display:none; fill:#BC3939;" />
	<path d="M100,0C44.8,0,0,44.8,0,100c0,55.2,44.8,100,100,100s100-44.8,100-100C200,44.8,155.2,0,100,0z M62.7,143.3
		c-1.7,0-3.1-1.6-2.8-3.3l13.7-87.1c0.4-2.3,2.3-4,4.7-4h30.7c11.4,0,20.2,2.5,25.2,8c5,5.5,6.9,13.4,2.5,26.7
		c-3.5,10.6-10.3,17.3-20.6,20.2c-4.1,1.2-8.6,1.7-13.8,1.7c0,0-3.9,0-9.7,0c-4.5,0-6.4,3.2-6.9,6.2c-0.1,0.9-5,31.5-5,31.5H62.7z
		 M149.1,99.3c-3.8,19.5-16.8,26.3-33.5,26.3h-2.6c-2,0-3.8,1.5-4.1,3.5l-3.6,22.5c-0.3,2-2,3.5-4.1,3.5H86.4c-1.4,0-2.7-1.2-2.5-2.7
		c0.4-2.5,6.3-40.1,6.3-40.1c0.2-1.2,1.2-2.1,2.4-2.1h2c0,0,2.8,0,7.4,0c31.3,0,38.6-19.9,40.9-32.9C150.2,82,150.7,91.1,149.1,99.3z
		" style="fill: #444444" />
</svg>