<?xml version="1.0" encoding="UTF-8" standalone="no"?>
<!-- Generator: Adobe Illustrator 16.0.0, SVG Export Plug-In . SVG Version: 6.00 Build 0)  -->

<svg
   xmlns:dc="http://purl.org/dc/elements/1.1/"
   xmlns:cc="http://creativecommons.org/ns#"
   xmlns:rdf="http://www.w3.org/1999/02/22-rdf-syntax-ns#"
   xmlns:svg="http://www.w3.org/2000/svg"
   xmlns="http://www.w3.org/2000/svg"
   xmlns:sodipodi="http://sodipodi.sourceforge.net/DTD/sodipodi-0.dtd"
   xmlns:inkscape="http://www.inkscape.org/namespaces/inkscape"
   version="1.1"
   id="Circle_1_"
   sodipodi:docname="AppNet.svg"
   inkscape:version="0.48.2 r9819"
   x="0px"
   y="0px"
   width="1000px"
   height="1000px"
   viewBox="0 0 1000 1000"
   enable-background="new 0 0 1000 1000"
   xml:space="preserve"><metadata
   id="metadata9"><rdf:RDF><cc:Work
       rdf:about=""><dc:format>image/svg+xml</dc:format><dc:type
         rdf:resource="http://purl.org/dc/dcmitype/StillImage" /><dc:title></dc:title></cc:Work></rdf:RDF></metadata><defs
   id="defs7" /><sodipodi:namedview
   pagecolor="#ffffff"
   bordercolor="#666666"
   borderopacity="1"
   objecttolerance="10"
   gridtolerance="10"
   guidetolerance="10"
   inkscape:pageopacity="0"
   inkscape:pageshadow="2"
   inkscape:window-width="778"
   inkscape:window-height="596"
   id="namedview5"
   showgrid="false"
   inkscape:zoom="0.236"
   inkscape:cx="480.45467"
   inkscape:cy="488.83034"
   inkscape:window-x="0"
   inkscape:window-y="0"
   inkscape:window-maximized="0"
   inkscape:current-layer="Circle_1_" />
<path
   d="M 500 0 C 223.85763 0 0 223.85763 0 500 C 3.7895613e-14 776.14237 223.85763 1000 500 1000 C 776.14237 1000 1000 776.14237 1000 500 C 1000 223.85763 776.14237 -1.1368684e-13 500 0 z M 719.15625 178.28125 C 727.03675 178.23438 734.91975 178.29275 742.78125 178.65625 C 764.18425 179.64625 770.38875 187.9305 764.46875 208.3125 C 732.49775 318.3885 695.893 426.88025 649.125 531.65625 C 641.218 549.37225 637.8435 566.715 646.4375 584.125 C 659.8405 611.278 673.783 638.282 689.5 664.125 C 694.681 672.643 705.304 678.90325 714.75 683.53125 C 733.89 692.90825 750.7175 687.37525 761.1875 669.03125 C 768.6355 655.98025 778.9825 650.283 793.8125 650.875 C 807.5785 651.426 821.37825 650.739 835.15625 651.125 C 849.27825 651.518 858.0565 659.928 856.8125 673.5 C 851.9085 727.095 817.2405 782.43675 757.5625 795.71875 C 711.1265 806.05375 670.09525 791.987 637.78125 758.5 C 619.26425 739.316 605.63525 715.357 590.40625 693.125 C 585.19725 685.522 581.85075 676.64825 575.96875 665.03125 C 568.04875 675.24825 561.88275 683.30925 555.59375 691.28125 C 520.18575 736.17025 478.77175 773.578 422.71875 790.125 C 334.76375 816.096 245.207 779.667 195.375 699 C 169.312 656.809 156.75675 610.30725 150.09375 561.53125 C 141.69475 500.03425 143.297 439.01225 156.625 378.53125 C 169.937 318.12525 194.51425 262.9995 243.90625 223.3125 C 327.73525 155.9555 442.60125 162.437 514.40625 257.25 C 542.28225 294.058 562.28325 335.02775 579.15625 377.71875 C 580.59825 381.36875 582.02625 385.02775 583.65625 388.59375 C 583.96825 389.27775 585.22875 389.5465 587.96875 391.0625 C 590.06675 386.2845 592.43925 381.78625 594.03125 377.03125 C 612.44725 322.06325 630.7895 267.0765 649.0625 212.0625 C 659.2555 181.3695 663.144 178.46875 695.5 178.46875 C 703.3775 178.46875 711.27575 178.32812 719.15625 178.28125 z M 366.15625 290.0625 C 354.98373 290.21717 343.26775 292.0605 330.9375 295.46875 C 288.4255 307.21975 262.549 338.4485 251.875 379.6875 C 242.611 415.4815 238.7105 452.651 233.9375 480.5 C 237.6075 516.454 239.71125 542.8645 243.28125 569.0625 C 244.92125 581.1005 248.68075 593.017 252.84375 604.5 C 284.01175 690.481 375.43875 714.056 444.09375 653.875 C 481.45175 621.128 505.86525 579.023 527.78125 535.375 C 530.23225 530.493 529.0715 522.80525 527.4375 517.03125 C 520.7515 493.43525 513.62925 469.93425 505.90625 446.65625 C 493.03825 407.86925 478.73425 369.5805 453.40625 336.8125 C 428.22875 304.2385 399.6738 289.59848 366.15625 290.0625 z "
   id="Circle"
   style="fill:#444444;fill-opacity:1" />

</svg>