<?xml version="1.0" encoding="UTF-8" standalone="no"?>
<!-- Created with Inkscape (http://www.inkscape.org/) -->

<svg
   xmlns:dc="http://purl.org/dc/elements/1.1/"
   xmlns:cc="http://creativecommons.org/ns#"
   xmlns:rdf="http://www.w3.org/1999/02/22-rdf-syntax-ns#"
   xmlns:svg="http://www.w3.org/2000/svg"
   xmlns="http://www.w3.org/2000/svg"
   version="1.1"
   width="1000"
   height="1000"
   id="svg2">
  <defs
     id="defs4">
    <clipPath
       id="clipPath3033">
      <path
         d="M 0,792 612,792 612,0 0,0 0,792 z"
         id="path3035" />
    </clipPath>
    <clipPath
       id="clipPath3833">
      <rect
         width="13.889598"
         height="25.885159"
         x="22.602163"
         y="1014.8603"
         id="rect3835"
         style="fill:#303030;fill-opacity:1" />
    </clipPath>
    <clipPath
       id="clipPath3992">
      <rect
         width="56.481354"
         height="111.7296"
         x="-359.02158"
         y="-447.10541"
         transform="scale(-1,-1)"
         id="rect3994"
         style="fill:#3f3f3f;fill-opacity:1" />
    </clipPath>
  </defs>
  <metadata
     id="metadata7">
    <rdf:RDF>
      <cc:Work
         rdf:about="">
        <dc:format>image/svg+xml</dc:format>
        <dc:type
           rdf:resource="http://purl.org/dc/dcmitype/StillImage" />
        <dc:title></dc:title>
      </cc:Work>
    </rdf:RDF>
  </metadata>
  <g
     transform="translate(0,-52.3622)"
     id="layer1">
    <path
       d="M 499.99999,52.3622 C 223.85761,52.3622 0,276.21982 0,552.3622 c 0,276.14238 223.85761,500 499.99999,500 276.14239,0 500.00001,-223.85762 500.00001,-500 0,-276.14238 -223.85762,-500 -500.00001,-500 z M 595,176.1122 c 34.65137,0.101 74.60895,2.73397 76.87499,5 0.4894,0.48938 0.16601,26.44147 -0.625,58.125 L 670,297.3622 l -43.75,0 c -61.16294,0.058 -73.82685,3.2218 -83.125,20.625 -4.38799,8.21298 -4.40752,10.78028 -5,67.5 l -0.625,58.75 67.49999,0 67.5,0 -0.625,16.25 c -0.11199,9.13738 -1.2274,37.65112 -2.49999,63.125 l -1.875,46.25 -65,0.625 -65,0.625 0,174.375 0,173.75 -66.25,0 c -36.36488,0 -66.71383,-0.4638 -67.5,-1.25 -0.7862,-0.7862 -0.7796,-79.35726 0,-174.375 l 1.25,-172.5 -46.25001,0 -46.87499,0 0,-63.75 0,-63.125 46.24999,0 46.25001,0 0.625,-71.25 c 0.7096,-65.03894 1.1542,-72.10882 5,-84.375 15.69894,-50.07329 48.00094,-83.87584 96.87499,-101.25 24.99387,-8.88506 45.89475,-11.37296 88.12501,-11.25 z"
       id="path2985"
       style="fill:#3f3f3f;fill-opacity:1;stroke-width:0;stroke-miterlimit:4;stroke-dasharray:none" />
  </g>
  <g
     transform="translate(0,950)"
     id="layer2">
    <path
       d=""
       id="path3062"
       style="fill:#000000" />
    <path
       d="m 20.273088,34.843738 0,-8.649431 -2.272844,0 -2.272843,0 0,-3.030458 0,-3.030458 2.256148,0 2.256148,0 0.06741,-3.377697 c 0.07489,-3.752393 0.151085,-4.227844 0.93586,-5.839945 0.876932,-1.8014115 2.609606,-3.1476783 4.907319,-3.8129263 0.92779,-0.2686196 1.238026,-0.2904997 4.064344,-0.2866477 2.071531,0.00282 3.105228,0.049517 3.200273,0.1445623 0.100177,0.100177 0.11403,0.9373557 0.04836,2.9226295 l -0.09203,2.7822372 -2.603167,0.04052 c -3.96255,0.06168 -3.928992,0.02303 -3.928992,4.52563 l 0,2.901633 3.363852,0 3.363854,0 -0.08217,1.799335 c -0.04519,0.989633 -0.117308,2.353339 -0.160258,3.030457 l -0.07809,1.231124 -3.203595,0 -3.203596,0 0,8.649431 0,8.649431 -3.282996,0 -3.282995,0 0,-8.649431 z"
       id="path3838"
       style="fill:#333333;fill-opacity:0" />
    <path
       d="m 20.273088,34.843738 0,-8.649431 -2.272844,0 -2.272843,0 0,-3.030458 0,-3.030458 2.256148,0 2.256148,0 0.06741,-3.377697 c 0.07489,-3.752393 0.151085,-4.227844 0.93586,-5.839945 0.876932,-1.8014115 2.609606,-3.1476783 4.907319,-3.8129263 0.92779,-0.2686196 1.238026,-0.2904997 4.064344,-0.2866477 2.071531,0.00282 3.105228,0.049517 3.200273,0.1445623 0.100177,0.100177 0.11403,0.9373557 0.04836,2.9226295 l -0.09203,2.7822372 -2.603167,0.04052 c -3.96255,0.06168 -3.928992,0.02303 -3.928992,4.52563 l 0,2.901633 3.363852,0 3.363854,0 -0.08217,1.799335 c -0.04519,0.989633 -0.117308,2.353339 -0.160258,3.030457 l -0.07809,1.231124 -3.203595,0 -3.203596,0 0,8.649431 0,8.649431 -3.282996,0 -3.282995,0 0,-8.649431 z"
       id="path3840"
       style="fill:#333333;fill-opacity:0" />
  </g>
</svg>
