<?xml version="1.0" encoding="UTF-8" standalone="no"?>
<svg width="1001px" height="1002px" viewBox="0 0 1001 1002" version="1.1" xmlns="http://www.w3.org/2000/svg" xmlns:xlink="http://www.w3.org/1999/xlink" xmlns:sketch="http://www.bohemiancoding.com/sketch/ns">
    <title>Facebook</title>
    <description>Created with Sketch (http://www.bohemiancoding.com/sketch)</description>
    <defs></defs>
    <g id="Page 1" fill="#D8D8D8" fill-rule="evenodd">
        <path d="M500,0.5 C223.857,0.5 0,224.357 0,500.5 C0,776.643 223.857,1000.5 500,1000.5 C776.143,1000.5 1000,776.643 1000,500.5 C1000,224.357 776.143,0.5 500,0.5 L500,0.5 L500,0.5 Z M595,124.25 C629.651,124.351 669.609,126.984 671.875,129.25 C672.364,129.739 672.041,155.691 671.25,187.375 L670,245.5 L626.25,245.5 C565.087,245.558 552.423,248.722 543.125,266.125 C538.737,274.338 538.718,276.905 538.125,333.625 L537.5,392.375 L605,392.375 L672.5,392.375 L671.875,408.625 C671.763,417.763 670.647,446.276 669.375,471.75 L667.5,518 L602.5,518.625 L537.5,519.25 L537.5,693.625 L537.5,867.375 L471.25,867.375 C434.885,867.375 404.536,866.911 403.75,866.125 C402.964,865.339 402.971,786.768 403.75,691.75 L405,519.25 L358.75,519.25 L311.875,519.25 L311.875,455.5 L311.875,392.375 L358.125,392.375 L404.375,392.375 L405,321.125 C405.71,256.086 406.154,249.016 410,236.75 C425.699,186.677 458.001,152.874 506.875,135.5 C531.869,126.615 552.77,124.127 595,124.25 L595,124.25 L595,124.25 Z M595,124.25" id="Facebook" fill="#444444"></path>
    </g>
</svg>