<?xml version="1.0" encoding="UTF-8" standalone="no"?>
<svg width="200px" height="200px" viewBox="0 0 200 200" version="1.1" xmlns="http://www.w3.org/2000/svg" xmlns:xlink="http://www.w3.org/1999/xlink" xmlns:sketch="http://www.bohemiancoding.com/sketch/ns">
    <title>GooglePlus</title>
    <description>Created with Sketch (http://www.bohemiancoding.com/sketch)</description>
    <defs></defs>
    <g id="Page 1" stroke="none" stroke-width="1" fill="none" fill-rule="evenodd">
        <path d="M100,0 C63.7562,0 32.0386,19.2602 14.5,48.125 C19.9712,44.2438 25.7332,41.6286 31.625,40.375 C38.8012,38.88 45.3704,38.125 51.5,38.125 L97.75,38.125 L83.375,46.25 L69.5,46.25 C70.8456,47.2966 72.3308,48.706 74.125,50.5 C75.919,52.1446 77.7304,54.2084 79.375,56.75 C81.0196,59.1422 82.429,61.961 83.625,65.25 C84.8208,68.5392 85.375,72.314 85.375,76.5 C85.375,80.6862 84.9214,84.3606 83.875,87.5 C82.8284,90.6396 81.294,93.4584 79.5,96 C77.7058,98.3922 75.7424,100.657 73.5,102.75 C71.2574,104.6936 68.892,106.581 66.5,108.375 C65.0048,109.8702 63.5956,111.3554 62.25,113 C60.9044,114.6446 60.25,116.7084 60.25,119.25 C60.25,121.7916 60.9044,123.88 62.25,125.375 C63.5956,126.7206 64.929,127.9536 66.125,129 L74.125,135.25 C76.517,137.343 78.8824,139.407 81.125,141.5 C83.517,143.593 85.4802,145.858 87.125,148.25 C88.919,150.642 90.4534,153.26 91.5,156.25 C92.5464,159.24 92.9998,162.7378 93,166.625 C92.9998,171.8576 91.7914,177.0418 89.25,182.125 C86.7084,187.208 82.9336,191.6128 78,195.5 C77.3304,196.0478 76.5914,196.6074 75.875,197.125 C83.5996,199.0378 91.684,200 100,200 C155.2286,200 200,155.2286 200,100 C200,93.4976 199.4352,87.1564 198.25,81 L161.25,81 L161.25,123.625 L147.875,123.625 L147.875,81 L105.25,81 L105.25,67.5 L147.875,67.5 L147.875,25.625 L161.25,25.625 L161.25,67.5 L194.5,67.5 C181.0038,28.2374 143.843,0 100,0 L100,0 L100,0 Z M37.375,45.5 C34.3848,45.5 31.4656,46.1546 28.625,47.5 C25.7844,48.8456 23.544,50.6326 21.75,52.875 C19.8064,55.2672 18.3724,57.9094 17.625,60.75 C17.027,63.5906 16.75,66.51 16.75,69.5 C16.75,73.2376 17.3284,77.4904 18.375,82.125 C19.571,86.7598 21.2574,91.0884 23.5,95.125 C25.892,99.1618 28.8114,102.5344 32.25,105.375 C35.838,108.066 39.9658,109.375 44.75,109.375 C47.5906,109.375 50.4338,108.821 53.125,107.625 C55.9656,106.429 58.2058,104.9192 60,103.125 C62.5414,100.5834 64.152,97.7646 64.75,94.625 C65.3478,91.4856 65.625,88.8432 65.625,86.75 C65.625,82.7134 65.0708,78.2842 63.875,73.5 C62.679,68.716 60.892,64.3112 58.5,60.125 C56.108,55.939 53.088,52.4412 49.5,49.75 C46.0614,46.9096 42.0096,45.5002 37.375,45.5 L37.375,45.5 L37.375,45.5 Z M0.125,94.875 C0.0386,96.5796 0,98.274 0,100 C0,116.4566 4.0826,131.9332 11.125,145.625 C12.1098,145.2224 13.1096,144.7264 14.125,144.375 C18.1616,143.179 22.1128,142.2474 26,141.5 C29.8872,140.7526 33.5614,140.174 37,139.875 C40.4386,139.576 43.3334,139.3996 45.875,139.25 C44.2304,137.157 42.745,134.9926 41.25,132.75 C39.9044,130.358 39.25,127.4386 39.25,124 C39.25,122.0564 39.4264,120.446 39.875,119.25 C40.3234,117.9044 40.777,116.5956 41.375,115.25 L37.875,115.75 L34.25,115.75 C28.2698,115.75 23.0096,114.6936 18.375,112.75 C13.7404,110.657 9.7646,108.039 6.625,104.75 C3.8326,101.8246 1.7348,98.51 0.125,94.875 L0.125,94.875 L0.125,94.875 Z M45.25,145.5 C43.6054,145.6494 41.6174,145.8504 39.375,146 C37.1324,146.299 34.7916,146.6766 32.25,147.125 C29.7084,147.723 27.267,148.3776 24.875,149.125 C23.679,149.5734 21.8674,150.228 19.625,151.125 C18.2918,151.7916 16.9582,152.6552 15.625,153.625 C27.589,172.416 45.6224,186.9028 67,194.375 C67.861,193.8246 68.7382,193.2632 69.5,192.625 C75.181,188.1398 78,182.4016 78,175.375 C78,172.5344 77.4214,169.892 76.375,167.5 C75.478,165.2574 74.0686,162.9926 72.125,160.75 C70.1814,158.5074 67.6394,156.267 64.5,153.875 C61.3604,151.483 57.686,148.74 53.5,145.75 C52.603,145.6004 51.8724,145.5 51.125,145.5 L48.375,145.5 L45.25,145.5 L45.25,145.5 Z M45.25,145.5" id="Google+" fill="#444444"></path>
    </g>
</svg>