<?xml version="1.0" encoding="UTF-8" standalone="no"?>
<!-- Created with Inkscape (http://www.inkscape.org/) -->

<svg
   xmlns:dc="http://purl.org/dc/elements/1.1/"
   xmlns:cc="http://creativecommons.org/ns#"
   xmlns:rdf="http://www.w3.org/1999/02/22-rdf-syntax-ns#"
   xmlns:svg="http://www.w3.org/2000/svg"
   xmlns="http://www.w3.org/2000/svg"
   version="1.1"
   width="1000"
   height="1000"
   id="svg2">
  <defs
     id="defs4">
    <clipPath
       id="clipPath3052">
      <path
         d="m 0.06,162.536 199.94,0 0,-162.476 -199.94,0 0,162.476 z"
         id="path3054" />
    </clipPath>
  </defs>
  <metadata
     id="metadata7">
    <rdf:RDF>
      <cc:Work
         rdf:about="">
        <dc:format>image/svg+xml</dc:format>
        <dc:type
           rdf:resource="http://purl.org/dc/dcmitype/StillImage" />
        <dc:title></dc:title>
      </cc:Work>
    </rdf:RDF>
  </metadata>
  <g
     transform="matrix(20,0,0,20,0,-20047.244)"
     id="layer1">
    <path
       d="M 25,0 C 11.192881,0 0,11.192881 0,25 0,38.807119 11.192881,50 25,50 38.807119,50 50,38.807119 50,25 50,11.192881 38.807119,0 25,0 z m 7.28125,11.3125 c 0.329386,0.0076 0.647675,0.06298 0.96875,0.125 1.276779,0.246635 2.840171,0.956956 3.53125,1.625 l 0.5625,0.53125 1.09375,-0.28125 c 0.610702,-0.158249 1.546395,-0.476683 2.09375,-0.71875 0.547356,-0.242066 1.047807,-0.420943 1.09375,-0.375 0.191173,0.191173 -0.914277,1.746189 -1.875,2.625 l -1.03125,0.9375 0.90625,-0.125 c 0.506604,-0.06695 1.3883,-0.279797 1.9375,-0.46875 0.595715,-0.204956 1,-0.267769 1,-0.15625 0,0.102811 -0.72535,0.89065 -1.59375,1.75 l -1.5625,1.5625 -0.125,1.78125 c -0.385551,5.495212 -2.385961,9.997786 -6.09375,13.75 -2.91335,2.948257 -6.27324,4.739693 -10.28125,5.5 -1.821282,0.345491 -5.125642,0.459807 -6.6875,0.25 -1.914088,-0.257123 -4.292178,-0.975102 -6.25,-1.90625 L 8.21875,36.875 10.0625,36.75 c 2.198353,-0.138024 3.715489,-0.503347 5.46875,-1.3125 1.29613,-0.598184 3.008726,-1.647524 2.875,-1.78125 -0.04002,-0.04002 -0.544278,-0.174873 -1.125,-0.28125 -2.079813,-0.380977 -4.020131,-1.767302 -5,-3.625 L 11.8125,28.84375 13.25,28.75 c 1.441666,-0.09033 1.961762,-0.252163 1.34375,-0.4375 C 12.72623,27.752445 10.846402,26.201544 10,24.53125 9.6588689,23.85806 9.15625,22.040892 9.15625,21.46875 c 0,-0.03452 0.1734356,0.04838 0.375,0.15625 0.3908472,0.209175 2.71416,0.723339 2.8125,0.625 0.03222,-0.03222 -0.403346,-0.515387 -0.9375,-1.0625 C 10.872096,20.64039 10.216769,19.726634 9.9375,19.15625 9.4779568,18.217671 9.4385304,17.946941 9.4375,16.25 9.4366248,14.808644 9.5137142,14.174718 9.78125,13.5 l 0.34375,-0.875 0.71875,0.8125 c 3.280552,3.679448 8.07368,6.077216 13.3125,6.65625 l 1,0.09375 -0.0625,-1.40625 c -0.06969,-1.712987 0.25258,-2.936038 1.125,-4.25 1.333194,-2.007934 3.756798,-3.271841 6.0625,-3.21875 z"
       transform="translate(0,1002.3622)"
       id="path2985"
       style="fill:#3f3f3f;fill-opacity:1;stroke-width:0;stroke-miterlimit:4;stroke-dasharray:none" />
  </g>
</svg>
