<?xml version="1.0" encoding="UTF-8" standalone="no"?>
<svg width="1001px" height="1002px" viewBox="0 0 1001 1002" version="1.1" xmlns="http://www.w3.org/2000/svg" xmlns:xlink="http://www.w3.org/1999/xlink" xmlns:sketch="http://www.bohemiancoding.com/sketch/ns">
    <title>Twitter</title>
    <description>Created with Sketch (http://www.bohemiancoding.com/sketch)</description>
    <defs></defs>
    <g id="Page 1" fill="#D8D8D8" fill-rule="evenodd">
        <path d="M500,0.5 C223.86,0.5 0,224.36 0,500.5 C0,776.64 223.86,1000.5 500,1000.5 C776.14,1000.5 1000,776.64 1000,500.5 C1000,224.36 776.14,0.5 500,0.5 L500,0.5 L500,0.5 Z M645.62,226.76 C652.2,226.92 658.58,228.02 665,229.26 C690.54,234.2 721.8,248.4 735.62,261.76 L746.86,272.38 L768.74,266.76 C780.96,263.6 799.66,257.22 810.62,252.38 C821.58,247.54 831.58,243.96 832.5,244.88 C836.32,248.7 814.22,279.8 795,297.38 L774.38,316.14 L792.5,313.64 C802.64,312.3 820.26,308.04 831.26,304.26 C843.18,300.16 851.26,298.9 851.26,301.14 C851.26,303.2 836.76,318.96 819.38,336.14 L788.14,367.38 L785.64,403 C777.92,512.9 737.92,602.96 663.76,678 C605.5,736.96 538.3,772.8 458.14,788 C421.72,794.92 355.62,797.2 324.38,793 C286.1,787.86 238.54,773.5 199.38,754.88 L164.38,738 L201.26,735.5 C245.22,732.74 275.56,725.44 310.64,709.26 C336.56,697.3 370.82,676.32 368.14,673.64 C367.34,672.84 357.26,670.14 345.64,668.02 C304.04,660.4 265.24,632.68 245.64,595.52 L236.26,577.4 L265.02,575.52 C293.86,573.72 304.26,570.48 291.9,566.76 C254.54,555.56 216.96,524.54 200.02,491.14 C193.2,477.68 183.14,441.34 183.14,429.9 C183.14,429.22 186.6,430.86 190.64,433.02 C198.46,437.2 244.92,447.48 246.9,445.52 C247.54,444.88 238.84,435.22 228.14,424.28 C217.46,413.34 204.36,395.06 198.76,383.66 C189.56,364.88 188.78,359.48 188.76,325.54 C188.74,296.72 190.28,284.04 195.64,270.54 L202.52,253.04 L216.9,269.28 C282.52,342.86 378.38,390.82 483.14,402.4 L503.14,404.28 L501.9,376.16 C500.5,341.9 506.96,317.44 524.4,291.16 C551.04,250.96 599.52,225.7 645.62,226.76 L645.62,226.76 L645.62,226.76 Z M645.62,226.76" id="Twitter" fill="#444444"></path>
    </g>
</svg>